<svg fill="none" height="25" viewBox="0 0 67 25" width="67" xmlns="http://www.w3.org/2000/svg">
<path d="M6.2 7.34694L4.3 16.9628H8L6.2 7.34694ZM0 23.8776L4.8 1.62065H7.4L12.2 23.8776H9.4L8.4 19.5558H3.7L2.8 23.8776H0ZM13.6 23.8776V8.96759H16V11.1285C16.5 10.2641 17 9.72389 17.4 9.29172C17.9 8.96759 18.5 8.64346 19.4 8.64346V11.5606H19.3C18.2 11.5606 17.3 11.7767 16.9 12.3169C16.4 12.8571 16.2 13.7215 16.2 14.91V23.8776H13.6ZM21.9 23.8776V10.9124H20.5V8.96759H21.9V4.86194H24.4V8.96759H26.3V10.9124H24.4V23.8776H21.9ZM29.6 21.7167C30.2 21.7167 30.6 21.5006 30.9 21.1765C31.2 20.8523 31.3 20.4202 31.3 19.88C31.3 19.2317 31.1 18.7995 30.8 18.3673C30.5 17.9352 30 17.395 29.3 16.6387C28.6 15.8824 28.1 15.2341 27.8 14.5858C27.5 13.9376 27.3 13.1813 27.3 12.3169C27.3 11.5606 27.5 10.9124 27.8 10.3721C28.1 9.83193 28.6 9.39976 29.1 9.07563C29.8 8.7515 30.4 8.64346 31.1 8.64346C31.8 8.64346 32.6 8.85954 33.4 9.29172V12.1008C32.8 11.4526 32.1 11.1285 31.4 11.1285C30.3 11.1285 29.7 11.6687 29.7 12.6411C29.7 13.2893 29.8 13.8295 30.1 14.1537C30.3 14.4778 30.8 15.126 31.5 15.8824C32.2 16.6387 32.8 17.395 33.1 18.0432C33.5 18.6915 33.6 19.4478 33.6 20.4202C33.6 21.6086 33.3 22.473 32.6 23.2293C31.9 23.8776 30.9 24.3097 29.7 24.3097C28.7 24.3097 27.9 24.0936 27.3 23.7695V20.9604C28 21.3926 28.8 21.7167 29.6 21.7167ZM39.3 8.64346C40.9 8.64346 42 9.39976 42.8 10.8043C43.6 12.2089 43.9 14.0456 43.9 16.4226C43.9 18.7995 43.5 20.6363 42.8 22.0408C42 23.4454 40.9 24.2017 39.3 24.2017C37.8 24.2017 36.6 23.4454 35.8 22.0408C35 20.6363 34.6 18.7995 34.6 16.4226C34.6 14.0456 35 12.2089 35.7 10.8043C36.5 9.39976 37.7 8.64346 39.3 8.64346ZM39.3 11.1285C37.9 11.1285 37.1 12.9652 37.1 16.5306C37.1 20.096 37.8 21.9328 39.3 21.9328C40.7 21.9328 41.4 20.096 41.4 16.5306C41.4 12.9652 40.7 11.1285 39.3 11.1285ZM46 23.8776V11.0204H44.7V8.85954H46V3.67347C46 1.18848 47 0 48.9 0C49.4 0 50 0.108043 50.6 0.32413V2.80912C50.2 2.70108 49.9 2.59304 49.6 2.59304C48.9 2.59304 48.6 3.02521 48.6 3.9976V8.85954H50.5V11.0204H48.6V23.7695H46V23.8776ZM52.5 23.8776V10.9124H51.1V8.96759H52.5V4.86194H55V8.96759H57V10.9124H55.1V23.8776H52.5ZM64.5 14.8019C64.3 12.3169 63.6 11.1285 62.4 11.1285C61.2 11.1285 60.5 12.3169 60.3 14.8019H64.5ZM66.9 18.9076C66.4 22.473 64.9 24.2017 62.4 24.2017C60.9 24.2017 59.7 23.4454 58.9 22.0408C58.1 20.6363 57.7 18.7995 57.7 16.4226C57.7 14.0456 58.1 12.2089 58.8 10.8043C59.6 9.39976 60.7 8.64346 62.3 8.64346C63.9 8.64346 65 9.39976 65.8 10.8043C66.6 12.2089 66.9 14.0456 66.9 16.4226V16.8547H60.1C60.1 18.2593 60.3 19.4478 60.7 20.3121C61.1 21.2845 61.6 21.7167 62.3 21.7167C63.3 21.7167 64 20.7443 64.3 18.7995H66.9V18.9076Z" fill="black"></path>
</svg>